<svg xmlns="http://www.w3.org/2000/svg" width="34" height="34" viewBox="0 0 34 34" fill="none">
  <path fill-rule="evenodd" clip-rule="evenodd" d="M1.41797 4.01985C1.41797 3.32927 1.6923 2.66698 2.18061 2.17866C2.66893 1.69035 3.33122 1.41602 4.0218 1.41602H29.978C30.3202 1.41546 30.6592 1.48241 30.9755 1.61303C31.2918 1.74365 31.5793 1.93538 31.8214 2.17725C32.0635 2.41911 32.2556 2.70635 32.3865 3.02253C32.5175 3.33871 32.5848 3.67762 32.5846 4.01985V29.976C32.585 30.3183 32.5179 30.6573 32.3871 30.9737C32.2563 31.29 32.0645 31.5774 31.8225 31.8195C31.5805 32.0616 31.2932 32.2537 30.9769 32.3846C30.6607 32.5156 30.3217 32.5829 29.9794 32.5827H4.0218C3.67974 32.5827 3.34103 32.5153 3.02503 32.3843C2.70903 32.2534 2.42192 32.0615 2.18011 31.8195C1.93831 31.5776 1.74654 31.2904 1.61577 30.9743C1.485 30.6582 1.41778 30.3195 1.41797 29.9774V4.01985ZM13.7543 13.299H17.9745V15.4184C18.5837 14.2 20.142 13.1035 22.4838 13.1035C26.9732 13.1035 28.0371 15.5303 28.0371 19.9828V28.2307H23.4939V20.9972C23.4939 18.4613 22.8847 17.0305 21.3377 17.0305C19.1915 17.0305 18.299 18.5733 18.299 20.9972V28.2307H13.7543V13.299ZM5.96264 28.0366H10.5073V13.1035H5.96264V28.0352V28.0366ZM11.1576 8.23302C11.1661 8.62214 11.0969 9.00905 10.9539 9.37105C10.8109 9.73304 10.597 10.0628 10.3249 10.3411C10.0527 10.6193 9.72771 10.8404 9.36895 10.9913C9.01018 11.1422 8.62489 11.2199 8.23568 11.2199C7.84646 11.2199 7.46117 11.1422 7.10241 10.9913C6.74365 10.8404 6.41864 10.6193 6.14647 10.3411C5.8743 10.0628 5.66045 9.73304 5.51746 9.37105C5.37447 9.00905 5.30523 8.62214 5.3138 8.23302C5.33062 7.46923 5.64585 6.74239 6.19197 6.20816C6.7381 5.67392 7.4717 5.37478 8.23568 5.37478C8.99965 5.37478 9.73325 5.67392 10.2794 6.20816C10.8255 6.74239 11.1407 7.46923 11.1576 8.23302Z" fill="#373739"/>
</svg>