<svg xmlns="http://www.w3.org/2000/svg" width="34" height="34" viewBox="0 0 34 34" fill="none">
<path d="M18.8279 13.1608L13.1612 18.8274C13.0285 18.9591 12.9231 19.1158 12.8511 19.2885C12.7792 19.4611 12.7422 19.6463 12.7422 19.8333C12.7422 20.0203 12.7792 20.2055 12.8511 20.3781C12.9231 20.5507 13.0285 20.7074 13.1612 20.8391C13.2929 20.9719 13.4496 21.0773 13.6223 21.1492C13.7949 21.2211 13.9801 21.2582 14.1671 21.2582C14.3541 21.2582 14.5393 21.2211 14.7119 21.1492C14.8845 21.0773 15.0412 20.9719 15.1729 20.8391L20.8396 15.1724C21.1063 14.9057 21.2562 14.5439 21.2562 14.1666C21.2562 13.7893 21.1063 13.4275 20.8396 13.1608C20.5728 12.894 20.211 12.7441 19.8337 12.7441C19.4565 12.7441 19.0947 12.894 18.8279 13.1608Z" fill="#373739"/>
<path d="M17.3954 24.6495L15.582 26.4487C14.5641 27.4976 13.1956 28.1352 11.7376 28.2397C10.2796 28.3442 8.83422 27.9084 7.67703 27.0154C7.06542 26.5114 6.56632 25.8847 6.21197 25.1758C5.85763 24.4669 5.65592 23.6916 5.61987 22.8999C5.58382 22.1082 5.71424 21.3178 6.0027 20.5796C6.29116 19.8414 6.73125 19.172 7.29453 18.6145L9.3062 16.5887C9.43898 16.457 9.54437 16.3003 9.6163 16.1277C9.68822 15.955 9.72525 15.7699 9.72525 15.5829C9.72525 15.3958 9.68822 15.2107 9.6163 15.038C9.54437 14.8654 9.43898 14.7087 9.3062 14.577C9.1745 14.4442 9.01782 14.3389 8.84518 14.2669C8.67255 14.195 8.48738 14.158 8.30037 14.158C8.11335 14.158 7.92818 14.195 7.75555 14.2669C7.58292 14.3389 7.42623 14.4442 7.29453 14.577L5.49537 16.3904C3.97976 17.858 3.0482 19.8258 2.87364 21.9283C2.69908 24.0309 3.29338 26.1253 4.5462 27.8229C5.28978 28.7875 6.23011 29.5829 7.30472 30.1562C8.37933 30.7295 9.56362 31.0675 10.7789 31.1479C11.9942 31.2283 13.2128 31.0492 14.3535 30.6225C15.4943 30.1957 16.5312 29.5311 17.3954 28.6729L19.407 26.6612C19.6738 26.3944 19.8237 26.0326 19.8237 25.6554C19.8237 25.2781 19.6738 24.9163 19.407 24.6495C19.1403 24.3828 18.7785 24.2329 18.4012 24.2329C18.0239 24.2329 17.6621 24.3828 17.3954 24.6495ZM27.8504 4.56119C26.1411 3.29535 24.0296 2.695 21.9101 2.87228C19.7905 3.04955 17.808 3.99234 16.3329 5.52452L14.8029 7.08286C14.628 7.20999 14.4818 7.37242 14.3736 7.55964C14.2655 7.74687 14.1979 7.95471 14.1752 8.16972C14.1525 8.38472 14.1752 8.6021 14.2418 8.80777C14.3085 9.01345 14.4176 9.20284 14.562 9.36369C14.6937 9.49647 14.8504 9.60186 15.023 9.67379C15.1957 9.74571 15.3808 9.78274 15.5679 9.78274C15.7549 9.78274 15.94 9.74571 16.1127 9.67379C16.2853 9.60186 16.442 9.49647 16.5737 9.36369L18.4154 7.50786C19.4277 6.45431 20.7946 5.81329 22.2519 5.70863C23.7093 5.60398 25.1537 6.0431 26.3062 6.94119C26.9224 7.44524 27.4254 8.07347 27.7826 8.78493C28.1397 9.49639 28.343 10.2751 28.3791 11.0704C28.4152 11.8656 28.2833 12.6596 27.992 13.4005C27.7008 14.1414 27.2567 14.8126 26.6887 15.3704L24.677 17.3962C24.5442 17.5279 24.4389 17.6846 24.3669 17.8572C24.295 18.0298 24.258 18.215 24.258 18.402C24.258 18.589 24.295 18.7742 24.3669 18.9468C24.4389 19.1195 24.5442 19.2762 24.677 19.4079C24.8087 19.5406 24.9654 19.646 25.138 19.718C25.3107 19.7899 25.4958 19.8269 25.6829 19.8269C25.8699 19.8269 26.055 19.7899 26.2277 19.718C26.4003 19.646 26.557 19.5406 26.6887 19.4079L28.7004 17.3962C29.5562 16.5322 30.2188 15.4962 30.6441 14.3568C31.0694 13.2174 31.2478 12.0007 31.1674 10.7872C31.0871 9.57365 30.7498 8.39106 30.1779 7.31772C29.6061 6.24439 28.8127 5.3048 27.8504 4.56119Z" fill="#373739"/>
</svg>