<svg xmlns="http://www.w3.org/2000/svg" width="14" height="14" viewBox="0 0 14 14" fill="none">
<path d="M3.79236 5.83309C3.66228 5.83309 3.53744 5.85292 3.41319 5.871C3.45344 5.73567 3.49486 5.598 3.56136 5.47434C3.62786 5.29467 3.73169 5.13892 3.83494 4.982C3.92128 4.81225 4.07353 4.69734 4.18553 4.55209C4.30278 4.41092 4.46261 4.317 4.58919 4.19975C4.71344 4.07725 4.87619 4.016 5.00569 3.92967C5.14103 3.85209 5.25886 3.76634 5.38486 3.7255L5.69928 3.596L5.97578 3.48109L5.69286 2.35059L5.34461 2.43459C5.23319 2.46259 5.09728 2.49525 4.94269 2.53434C4.78461 2.5635 4.61603 2.64342 4.42819 2.71634C4.24269 2.79917 4.02803 2.85517 3.82853 2.98817C3.62786 3.11534 3.39628 3.2215 3.19211 3.39184C2.99436 3.56742 2.75578 3.71967 2.57961 3.94309C2.38711 4.15192 2.19694 4.37125 2.04936 4.62092C1.87844 4.85892 1.76236 5.12025 1.63986 5.37867C1.52903 5.63709 1.43978 5.90134 1.36686 6.158C1.22861 6.6725 1.16678 7.16134 1.14286 7.57959C1.12303 7.99842 1.1347 8.34667 1.1592 8.59867C1.16795 8.71767 1.18428 8.83317 1.19595 8.91309L1.21053 9.01109L1.2257 9.00759C1.32945 9.49224 1.56829 9.93761 1.91459 10.2922C2.26089 10.6468 2.7005 10.8961 3.18257 11.0112C3.66463 11.1264 4.16945 11.1027 4.63863 10.943C5.10781 10.7832 5.52218 10.4939 5.8338 10.1085C6.14542 9.72309 6.34155 9.25732 6.39952 8.76509C6.45749 8.27286 6.37491 7.77428 6.16135 7.32702C5.94779 6.87975 5.61197 6.50209 5.19274 6.23771C4.77351 5.97334 4.28799 5.83305 3.79236 5.83309ZM10.209 5.83309C10.0789 5.83309 9.95411 5.85292 9.82986 5.871C9.87011 5.73567 9.91153 5.598 9.97803 5.47434C10.0445 5.29467 10.1484 5.13892 10.2516 4.982C10.3379 4.81225 10.4902 4.69734 10.6022 4.55209C10.7194 4.41092 10.8793 4.317 11.0059 4.19975C11.1301 4.07725 11.2929 4.016 11.4224 3.92967C11.5577 3.85209 11.6755 3.76634 11.8015 3.7255L12.1159 3.596L12.3924 3.48109L12.1095 2.35059L11.7613 2.43459C11.6499 2.46259 11.5139 2.49525 11.3594 2.53434C11.2013 2.5635 11.0327 2.64342 10.8449 2.71634C10.6599 2.79975 10.4447 2.85517 10.2452 2.98875C10.0445 3.11592 9.81294 3.22209 9.60878 3.39242C9.41103 3.568 9.17244 3.72025 8.99628 3.94309C8.80378 4.15192 8.61361 4.37125 8.46603 4.62092C8.29511 4.85892 8.17903 5.12025 8.05653 5.37867C7.94569 5.63709 7.85644 5.90134 7.78353 6.158C7.64528 6.6725 7.58344 7.16134 7.55953 7.57959C7.53969 7.99842 7.55136 8.34667 7.57586 8.59867C7.58461 8.71767 7.60094 8.83317 7.61261 8.91309L7.62719 9.01109L7.64236 9.00759C7.74611 9.49224 7.98495 9.93761 8.33126 10.2922C8.67756 10.6468 9.11717 10.8961 9.59923 11.0112C10.0813 11.1264 10.5861 11.1027 11.0553 10.943C11.5245 10.7832 11.9388 10.4939 12.2505 10.1085C12.5621 9.72309 12.7582 9.25732 12.8162 8.76509C12.8742 8.27286 12.7916 7.77428 12.578 7.32702C12.3645 6.87975 12.0286 6.50209 11.6094 6.23771C11.1902 5.97334 10.7047 5.83305 10.209 5.83309Z" fill="white"/>
</svg>