<svg xmlns="http://www.w3.org/2000/svg" width="34" height="34" viewBox="0 0 34 34" fill="none">
<path d="M33.495 6.9944C32.312 7.51856 31.0413 7.87273 29.7054 8.03281C31.0838 7.20802 32.115 5.90989 32.6067 4.38065C31.3117 5.14988 29.8943 5.69134 28.4162 5.98148C27.4222 4.9202 26.1057 4.21677 24.671 3.9804C23.2363 3.74403 21.7637 3.98793 20.4818 4.67425C19.1999 5.36057 18.1805 6.45091 17.5818 7.77598C16.983 9.10105 16.8385 10.5867 17.1707 12.0023C14.5466 11.8706 11.9795 11.1885 9.63606 10.0004C7.2926 8.81235 5.22515 7.14479 3.56787 5.10598C3.00121 6.08348 2.67537 7.21681 2.67537 8.42381C2.67474 9.51039 2.94232 10.5803 3.45437 11.5387C3.96642 12.497 4.7071 13.3142 5.61071 13.9176C4.56277 13.8843 3.53795 13.6011 2.62154 13.0917V13.1767C2.62144 14.7007 3.14859 16.1778 4.11355 17.3573C5.07851 18.5369 6.42185 19.3462 7.91563 19.6481C6.94348 19.9112 5.92427 19.9499 4.93496 19.7614C5.35641 21.0727 6.17737 22.2194 7.2829 23.0409C8.38842 23.8624 9.72317 24.3177 11.1003 24.3429C8.76256 26.1781 5.87547 27.1735 2.90346 27.1691C2.377 27.1693 1.85098 27.1385 1.32812 27.0771C4.34488 29.0167 7.85661 30.0461 11.4431 30.0422C23.584 30.0422 30.221 19.9867 30.221 11.2656C30.221 10.9823 30.214 10.6961 30.2012 10.4128C31.4922 9.47919 32.6066 8.32308 33.4921 6.99865L33.495 6.9944Z" fill="#373739"/>
</svg>